M48
; DRILL file {KiCad 5.1.6-c6e7f7d~86~ubuntu18.04.1} date Wed May 27 00:28:37 2020
; FORMAT={-:-/ absolute / metric / decimal}
; #@! TF.CreationDate,2020-05-27T00:28:37+09:00
; #@! TF.GenerationSoftware,Kicad,Pcbnew,5.1.6-c6e7f7d~86~ubuntu18.04.1
; #@! TF.FileFunction,Plated,1,2,PTH
FMAT,2
METRIC
T1C0.800
T2C0.900
T3C1.000
T4C1.400
T5C1.600
%
G90
G05
T1
X19.624Y49.628
X39.984Y44.548
X42.484Y44.548
X24.704Y24.228
X24.704Y16.608
X29.784Y24.228
X29.784Y16.608
X31.816Y44.04
X31.816Y41.5
X67.884Y44.548
X70.424Y44.548
X47.564Y44.548
X50.104Y44.548
X39.944Y24.228
X39.944Y16.608
X45.024Y24.228
X45.024Y16.608
X37.404Y49.628
X39.904Y49.628
X17.124Y49.628
X60.304Y44.548
X62.804Y44.548
X23.728Y44.548
X26.228Y44.548
X57.724Y49.628
X60.224Y49.628
T2
X29.276Y49.628
X31.816Y49.628
X47.564Y49.628
X50.104Y49.628
X67.884Y49.628
X70.424Y49.628
T3
X27.244Y38.96
X47.564Y38.96
X70.932Y36.928
X70.932Y27.784
X55.184Y33.372
X60.184Y33.372
X14.624Y33.372
X19.624Y33.372
X55.184Y18.132
X60.184Y18.132
X80.584Y45.564
X80.584Y43.024
X80.584Y40.484
X80.584Y37.944
X80.584Y35.404
X80.584Y32.864
X80.584Y30.324
X80.584Y27.784
X83.124Y45.564
X83.124Y43.024
X83.124Y40.484
X83.124Y37.944
X83.124Y35.404
X83.124Y32.864
X83.124Y30.324
X83.124Y27.784
X34.864Y33.372
X39.864Y33.372
X111.064Y45.564
X111.064Y43.024
X111.064Y40.484
X111.064Y37.944
X111.064Y35.404
X111.064Y32.864
X111.064Y30.324
X111.064Y27.784
X113.604Y45.564
X113.604Y43.024
X113.604Y40.484
X113.604Y37.944
X113.604Y35.404
X113.604Y32.864
X113.604Y30.324
X113.604Y27.784
X57.724Y53.184
X60.264Y53.184
X62.804Y53.184
X95.824Y45.564
X95.824Y43.024
X95.824Y40.484
X95.824Y37.944
X95.824Y35.404
X95.824Y32.864
X95.824Y30.324
X95.824Y27.784
X98.364Y45.564
X98.364Y43.024
X98.364Y40.484
X98.364Y37.944
X98.364Y35.404
X98.364Y32.864
X98.364Y30.324
X98.364Y27.784
X17.084Y53.184
X19.624Y53.184
X22.164Y53.184
X37.404Y53.184
X39.944Y53.184
X42.484Y53.184
X126.304Y45.564
X126.304Y43.024
X126.304Y40.484
X126.304Y37.944
X126.304Y35.404
X126.304Y32.864
X126.304Y30.324
X126.304Y27.784
X128.844Y45.564
X128.844Y43.024
X128.844Y40.484
X128.844Y37.944
X128.844Y35.404
X128.844Y32.864
X128.844Y30.324
X128.844Y27.784
T4
X19.624Y10.004
X24.704Y10.004
X29.784Y10.004
X39.944Y10.004
X45.024Y10.004
T5
X14.624Y60.24
X24.624Y60.24
X34.944Y60.24
X44.944Y60.24
X55.264Y60.24
X65.264Y60.24
T0
M30
