M48
; DRILL file {KiCad 5.1.6-c6e7f7d~87~ubuntu18.04.1} date Tue Jul 21 14:01:05 2020
; FORMAT={-:-/ absolute / metric / decimal}
; #@! TF.CreationDate,2020-07-21T14:01:05+09:00
; #@! TF.GenerationSoftware,Kicad,Pcbnew,5.1.6-c6e7f7d~87~ubuntu18.04.1
; #@! TF.FileFunction,Plated,1,2,PTH
FMAT,2
METRIC
T1C0.800
T2C0.900
T3C1.000
T4C1.400
T5C1.600
%
G90
G05
T1
X22.164Y24.228
X27.244Y24.228
X27.244Y16.608
X34.356Y44.04
X42.524Y44.548
X45.024Y44.548
X39.944Y49.628
X42.444Y49.628
X26.268Y44.548
X28.768Y44.548
X62.844Y44.548
X65.344Y44.548
X37.404Y24.228
X37.404Y16.608
X42.484Y24.228
X42.484Y16.608
X22.164Y16.608
X50.104Y44.548
X52.644Y44.548
X19.664Y49.628
X22.164Y49.628
X60.264Y49.628
X62.764Y49.628
X34.356Y41.5
X70.424Y44.548
X72.964Y44.548
T2
X70.424Y49.628
X72.964Y49.628
X31.816Y49.628
X34.356Y49.628
X50.104Y49.628
X52.644Y49.628
T3
X27.244Y38.96
X47.564Y38.96
X70.932Y36.928
X70.932Y27.784
X12.084Y33.372
X17.084Y33.372
X52.644Y33.372
X57.644Y33.372
X95.824Y45.564
X95.824Y43.024
X95.824Y40.484
X95.824Y37.944
X95.824Y35.404
X95.824Y32.864
X95.824Y30.324
X95.824Y27.784
X98.364Y45.564
X98.364Y43.024
X98.364Y40.484
X98.364Y37.944
X98.364Y35.404
X98.364Y32.864
X98.364Y30.324
X98.364Y27.784
X111.064Y45.564
X111.064Y43.024
X111.064Y40.484
X111.064Y37.944
X111.064Y35.404
X111.064Y32.864
X111.064Y30.324
X111.064Y27.784
X113.604Y45.564
X113.604Y43.024
X113.604Y40.484
X113.604Y37.944
X113.604Y35.404
X113.604Y32.864
X113.604Y30.324
X113.604Y27.784
X52.644Y18.132
X57.644Y18.132
X60.264Y53.184
X62.804Y53.184
X65.344Y53.184
X126.304Y45.564
X126.304Y43.024
X126.304Y40.484
X126.304Y37.944
X126.304Y35.404
X126.304Y32.864
X126.304Y30.324
X126.304Y27.784
X128.844Y45.564
X128.844Y43.024
X128.844Y40.484
X128.844Y37.944
X128.844Y35.404
X128.844Y32.864
X128.844Y30.324
X128.844Y27.784
X39.944Y53.184
X42.484Y53.184
X45.024Y53.184
X19.624Y53.184
X22.164Y53.184
X24.704Y53.184
X80.584Y45.564
X80.584Y43.024
X80.584Y40.484
X80.584Y37.944
X80.584Y35.404
X80.584Y32.864
X80.584Y30.324
X80.584Y27.784
X83.124Y45.564
X83.124Y43.024
X83.124Y40.484
X83.124Y37.944
X83.124Y35.404
X83.124Y32.864
X83.124Y30.324
X83.124Y27.784
X32.324Y33.372
X37.324Y33.372
T4
X17.084Y10.004
X22.164Y10.004
X27.244Y10.004
X37.404Y10.004
X42.484Y10.004
T5
X47.484Y59.74
X17.164Y59.74
X27.164Y59.74
X57.804Y59.74
X67.804Y59.74
X37.484Y59.74
T0
M30
